<svg width="583" height="213" viewBox="0 0 583 213" fill="none" xmlns="http://www.w3.org/2000/svg">
<g filter="url(#filter0_d_462_472)">
<path d="M23 73.2823C39.8759 68.9727 79.3728 61.6463 102.353 66.8179C131.078 73.2823 140.054 98.1452 162.675 90.6863C185.296 83.2274 234.488 30.5177 268.599 51.9C302.71 73.2823 313.841 129.473 356.21 90.6863C398.58 51.9 394.989 31.5123 430.177 35.4904C465.365 39.4685 523.174 52.8945 544 35.4904" stroke="#4318FF" stroke-width="4" stroke-linecap="round"/>
</g>
<path d="M23 130.756C39.8759 126.45 62.1378 104.227 85.1178 109.394C113.843 115.852 126.051 158.583 148.672 151.131C171.293 143.679 231.706 100.546 268.599 109.394C314.2 120.33 307.737 169.505 350.106 130.756C392.476 92.0064 418.328 115.362 453.516 119.336C488.704 123.311 523.174 110.387 544 93" stroke="#6AD2FF" stroke-width="4" stroke-linecap="round"/>
<ellipse cx="252.501" cy="47" rx="7.16286" ry="8" fill="#4318FF"/>
<ellipse cx="252.5" cy="47" rx="4.47677" ry="5" fill="white"/>
<path d="M223.078 6C223.078 2.68629 225.764 0 229.078 0H277.5C280.813 0 283.5 2.68629 283.5 6V22.6316C283.5 25.9453 280.813 28.6316 277.5 28.6316H263.217C259.743 28.6316 256.45 30.1809 254.234 32.8575V32.8575C253.744 33.4506 252.834 33.4506 252.343 32.8575V32.8575C250.128 30.1809 246.835 28.6316 243.361 28.6316H229.078C225.764 28.6316 223.078 25.9453 223.078 22.6316V6Z" fill="#4318FF"/>
<path d="M235.19 18.1639V17.3169C234.479 17.2362 233.899 16.9869 233.452 16.5689C233.005 16.1509 232.774 15.5899 232.759 14.8859H234.244C234.259 15.1792 234.347 15.4359 234.508 15.6559C234.677 15.8759 234.904 16.0262 235.19 16.1069V13.7859C235.124 13.7639 235.054 13.7419 234.981 13.7199C234.915 13.6979 234.845 13.6759 234.772 13.6539C234.178 13.4486 233.723 13.1846 233.408 12.8619C233.1 12.5392 232.946 12.1102 232.946 11.5749C232.939 10.9442 233.144 10.4382 233.562 10.0569C233.98 9.66824 234.523 9.44458 235.19 9.38591V8.49491H235.927V9.39691C236.587 9.46291 237.119 9.69391 237.522 10.0899C237.933 10.4786 238.149 10.9809 238.171 11.5969H236.664C236.657 11.3842 236.587 11.1899 236.455 11.0139C236.33 10.8306 236.154 10.7022 235.927 10.6289V12.6749C235.986 12.6969 236.044 12.7189 236.103 12.7409C236.162 12.7556 236.22 12.7739 236.279 12.7959C236.66 12.9279 237.009 13.0819 237.324 13.2579C237.639 13.4339 237.892 13.6686 238.083 13.9619C238.274 14.2479 238.369 14.6182 238.369 15.0729C238.369 15.4542 238.274 15.8099 238.083 16.1399C237.9 16.4699 237.625 16.7449 237.258 16.9649C236.899 17.1776 236.455 17.2986 235.927 17.3279V18.1639H235.19ZM234.42 11.4759C234.42 11.7106 234.49 11.9012 234.629 12.0479C234.768 12.1872 234.955 12.3082 235.19 12.4109V10.5849C234.963 10.6289 234.776 10.7279 234.629 10.8819C234.49 11.0359 234.42 11.2339 234.42 11.4759ZM236.873 15.1719C236.873 14.8786 236.785 14.6476 236.609 14.4789C236.433 14.3102 236.206 14.1672 235.927 14.0499V16.1399C236.22 16.0959 236.451 15.9896 236.62 15.8209C236.789 15.6522 236.873 15.4359 236.873 15.1719ZM240.213 17.2069V11.1129L238.948 11.4099V10.3319L240.807 9.50691H241.676V17.2069H240.213ZM246.106 17.3389C245.395 17.3389 244.786 17.1739 244.28 16.8439C243.774 16.5066 243.382 16.0409 243.103 15.4469C242.832 14.8456 242.696 14.1489 242.696 13.3569C242.696 12.5722 242.832 11.8792 243.103 11.2779C243.382 10.6766 243.774 10.2109 244.28 9.88091C244.786 9.54358 245.395 9.37491 246.106 9.37491C246.818 9.37491 247.426 9.54358 247.932 9.88091C248.438 10.2109 248.827 10.6766 249.098 11.2779C249.377 11.8792 249.516 12.5722 249.516 13.3569C249.516 14.1489 249.377 14.8456 249.098 15.4469C248.827 16.0409 248.438 16.5066 247.932 16.8439C247.426 17.1739 246.818 17.3389 246.106 17.3389ZM246.106 16.0739C246.686 16.0739 247.159 15.8319 247.525 15.3479C247.892 14.8639 248.075 14.2002 248.075 13.3569C248.075 12.5136 247.892 11.8499 247.525 11.3659C247.159 10.8819 246.686 10.6399 246.106 10.6399C245.52 10.6399 245.043 10.8819 244.676 11.3659C244.317 11.8499 244.137 12.5136 244.137 13.3569C244.137 14.2002 244.317 14.8639 244.676 15.3479C245.043 15.8319 245.52 16.0739 246.106 16.0739ZM253.256 17.3389C252.728 17.3389 252.251 17.2472 251.826 17.0639C251.401 16.8732 251.06 16.6056 250.803 16.2609C250.554 15.9162 250.429 15.5166 250.429 15.0619C250.429 14.5926 250.55 14.1819 250.792 13.8299C251.041 13.4779 251.368 13.2249 251.771 13.0709C251.419 12.9169 251.14 12.6969 250.935 12.4109C250.73 12.1176 250.627 11.7912 250.627 11.4319C250.627 11.0652 250.726 10.7279 250.924 10.4199C251.122 10.1046 251.415 9.85158 251.804 9.66091C252.2 9.47024 252.684 9.37491 253.256 9.37491C253.828 9.37491 254.308 9.47024 254.697 9.66091C255.086 9.85158 255.379 10.1046 255.577 10.4199C255.775 10.7279 255.874 11.0652 255.874 11.4319C255.874 11.7839 255.768 12.1102 255.555 12.4109C255.35 12.7042 255.075 12.9242 254.73 13.0709C255.141 13.2249 255.467 13.4779 255.709 13.8299C255.951 14.1819 256.072 14.5926 256.072 15.0619C256.072 15.5166 255.947 15.9162 255.698 16.2609C255.449 16.6056 255.108 16.8732 254.675 17.0639C254.25 17.2472 253.777 17.3389 253.256 17.3389ZM253.256 12.6529C253.637 12.6529 253.938 12.5539 254.158 12.3559C254.378 12.1579 254.488 11.9049 254.488 11.5969C254.488 11.2596 254.378 10.9956 254.158 10.8049C253.945 10.6142 253.645 10.5189 253.256 10.5189C252.86 10.5189 252.556 10.6142 252.343 10.8049C252.13 10.9956 252.024 11.2596 252.024 11.5969C252.024 11.9122 252.13 12.1689 252.343 12.3669C252.563 12.5576 252.867 12.6529 253.256 12.6529ZM253.256 16.1619C253.725 16.1619 254.081 16.0482 254.323 15.8209C254.565 15.5862 254.686 15.2929 254.686 14.9409C254.686 14.5522 254.558 14.2479 254.301 14.0279C254.052 13.8079 253.703 13.6979 253.256 13.6979C252.809 13.6979 252.453 13.8079 252.189 14.0279C251.932 14.2479 251.804 14.5522 251.804 14.9409C251.804 15.2929 251.925 15.5862 252.167 15.8209C252.416 16.0482 252.779 16.1619 253.256 16.1619ZM257.809 17.2839C257.552 17.2839 257.34 17.2032 257.171 17.0419C257.01 16.8806 256.929 16.6862 256.929 16.4589C256.929 16.2242 257.01 16.0262 257.171 15.8649C257.34 15.7036 257.552 15.6229 257.809 15.6229C258.066 15.6229 258.275 15.7036 258.436 15.8649C258.605 16.0262 258.689 16.2242 258.689 16.4589C258.689 16.6862 258.605 16.8806 258.436 17.0419C258.275 17.2032 258.066 17.2839 257.809 17.2839ZM262.376 17.3389C261.665 17.3389 261.056 17.1739 260.55 16.8439C260.044 16.5066 259.652 16.0409 259.373 15.4469C259.102 14.8456 258.966 14.1489 258.966 13.3569C258.966 12.5722 259.102 11.8792 259.373 11.2779C259.652 10.6766 260.044 10.2109 260.55 9.88091C261.056 9.54358 261.665 9.37491 262.376 9.37491C263.087 9.37491 263.696 9.54358 264.202 9.88091C264.708 10.2109 265.097 10.6766 265.368 11.2779C265.647 11.8792 265.786 12.5722 265.786 13.3569C265.786 14.1489 265.647 14.8456 265.368 15.4469C265.097 16.0409 264.708 16.5066 264.202 16.8439C263.696 17.1739 263.087 17.3389 262.376 17.3389ZM262.376 16.0739C262.955 16.0739 263.428 15.8319 263.795 15.3479C264.162 14.8639 264.345 14.2002 264.345 13.3569C264.345 12.5136 264.162 11.8499 263.795 11.3659C263.428 10.8819 262.955 10.6399 262.376 10.6399C261.789 10.6399 261.313 10.8819 260.946 11.3659C260.587 11.8499 260.407 12.5136 260.407 13.3569C260.407 14.2002 260.587 14.8639 260.946 15.3479C261.313 15.8319 261.789 16.0739 262.376 16.0739ZM269.966 17.3389C269.254 17.3389 268.646 17.1739 268.14 16.8439C267.634 16.5066 267.241 16.0409 266.963 15.4469C266.691 14.8456 266.556 14.1489 266.556 13.3569C266.556 12.5722 266.691 11.8792 266.963 11.2779C267.241 10.6766 267.634 10.2109 268.14 9.88091C268.646 9.54358 269.254 9.37491 269.966 9.37491C270.677 9.37491 271.286 9.54358 271.792 9.88091C272.298 10.2109 272.686 10.6766 272.958 11.2779C273.236 11.8792 273.376 12.5722 273.376 13.3569C273.376 14.1489 273.236 14.8456 272.958 15.4469C272.686 16.0409 272.298 16.5066 271.792 16.8439C271.286 17.1739 270.677 17.3389 269.966 17.3389ZM269.966 16.0739C270.545 16.0739 271.018 15.8319 271.385 15.3479C271.751 14.8639 271.935 14.2002 271.935 13.3569C271.935 12.5136 271.751 11.8499 271.385 11.3659C271.018 10.8819 270.545 10.6399 269.966 10.6399C269.379 10.6399 268.902 10.8819 268.536 11.3659C268.176 11.8499 267.997 12.5136 267.997 13.3569C267.997 14.2002 268.176 14.8639 268.536 15.3479C268.902 15.8319 269.379 16.0739 269.966 16.0739Z" fill="white"/>
<path d="M24.8999 205.144C24.2919 205.144 23.7559 205.036 23.2919 204.82C22.8279 204.596 22.4679 204.284 22.2119 203.884C21.9559 203.484 21.8239 203.016 21.8159 202.48H23.0879C23.0879 202.784 23.1559 203.064 23.2919 203.32C23.4359 203.568 23.6399 203.768 23.9039 203.92C24.1759 204.064 24.5079 204.136 24.8999 204.136C25.2359 204.136 25.5239 204.08 25.7639 203.968C26.0119 203.856 26.1999 203.704 26.3279 203.512C26.4559 203.312 26.5199 203.084 26.5199 202.828C26.5199 202.54 26.4559 202.304 26.3279 202.12C26.1999 201.928 26.0199 201.768 25.7879 201.64C25.5639 201.512 25.3039 201.4 25.0079 201.304C24.7199 201.208 24.4079 201.104 24.0719 200.992C23.3919 200.768 22.8879 200.484 22.5599 200.14C22.2399 199.796 22.0799 199.348 22.0799 198.796C22.0799 198.324 22.1879 197.916 22.4039 197.572C22.6279 197.22 22.9439 196.948 23.3519 196.756C23.7599 196.556 24.2359 196.456 24.7799 196.456C25.3319 196.456 25.8079 196.556 26.2079 196.756C26.6159 196.956 26.9359 197.232 27.1679 197.584C27.3999 197.936 27.5199 198.348 27.5279 198.82H26.2559C26.2559 198.604 26.1959 198.392 26.0759 198.184C25.9639 197.976 25.7959 197.808 25.5719 197.68C25.3559 197.544 25.0839 197.476 24.7559 197.476C24.4759 197.468 24.2279 197.512 24.0119 197.608C23.7959 197.704 23.6279 197.844 23.5079 198.028C23.3879 198.212 23.3279 198.432 23.3279 198.688C23.3279 198.944 23.3839 199.152 23.4959 199.312C23.6079 199.464 23.7639 199.596 23.9639 199.708C24.1719 199.82 24.4159 199.924 24.6959 200.02C24.9759 200.108 25.2839 200.208 25.6199 200.32C26.0279 200.456 26.3959 200.624 26.7239 200.824C27.0519 201.016 27.3079 201.268 27.4919 201.58C27.6839 201.884 27.7799 202.276 27.7799 202.756C27.7799 203.172 27.6719 203.56 27.4559 203.92C27.2399 204.28 26.9199 204.576 26.4959 204.808C26.0719 205.032 25.5399 205.144 24.8999 205.144ZM28.99 205V196.6H34.294V197.584H30.19V200.272H33.934V201.232H30.19V204.016H34.294V205H28.99ZM35.6289 205V196.6H38.4849C39.1569 196.6 39.7089 196.712 40.1409 196.936C40.5809 197.16 40.9049 197.464 41.1129 197.848C41.3209 198.224 41.4249 198.656 41.4249 199.144C41.4249 199.608 41.3209 200.032 41.1129 200.416C40.9049 200.8 40.5849 201.108 40.1529 201.34C39.7209 201.564 39.1649 201.676 38.4849 201.676H36.8289V205H35.6289ZM36.8289 200.68H38.4369C39.0769 200.68 39.5289 200.54 39.7929 200.26C40.0649 199.98 40.2009 199.608 40.2009 199.144C40.2009 198.656 40.0649 198.276 39.7929 198.004C39.5289 197.732 39.0769 197.596 38.4369 197.596H36.8289V200.68Z" fill="#A3AED0"/>
<path d="M124.429 205.144C123.637 205.144 122.937 204.964 122.329 204.604C121.729 204.236 121.257 203.728 120.913 203.08C120.577 202.424 120.409 201.664 120.409 200.8C120.409 199.944 120.577 199.192 120.913 198.544C121.257 197.888 121.729 197.376 122.329 197.008C122.937 196.64 123.637 196.456 124.429 196.456C125.237 196.456 125.941 196.64 126.541 197.008C127.149 197.376 127.621 197.888 127.957 198.544C128.293 199.192 128.461 199.944 128.461 200.8C128.461 201.664 128.293 202.424 127.957 203.08C127.621 203.728 127.149 204.236 126.541 204.604C125.941 204.964 125.237 205.144 124.429 205.144ZM124.429 204.076C124.997 204.076 125.489 203.944 125.905 203.68C126.329 203.416 126.657 203.04 126.889 202.552C127.121 202.064 127.237 201.48 127.237 200.8C127.237 200.12 127.121 199.536 126.889 199.048C126.657 198.56 126.329 198.188 125.905 197.932C125.489 197.668 124.997 197.536 124.429 197.536C123.869 197.536 123.377 197.668 122.953 197.932C122.537 198.188 122.213 198.56 121.981 199.048C121.749 199.536 121.633 200.12 121.633 200.8C121.633 201.48 121.749 202.064 121.981 202.552C122.213 203.04 122.537 203.416 122.953 203.68C123.377 203.944 123.869 204.076 124.429 204.076ZM133.316 205.144C132.5 205.144 131.796 204.964 131.204 204.604C130.612 204.236 130.156 203.728 129.836 203.08C129.516 202.424 129.356 201.664 129.356 200.8C129.356 199.944 129.516 199.188 129.836 198.532C130.156 197.876 130.612 197.368 131.204 197.008C131.796 196.64 132.5 196.456 133.316 196.456C134.292 196.456 135.084 196.692 135.692 197.164C136.3 197.636 136.688 198.3 136.856 199.156H135.548C135.42 198.66 135.172 198.264 134.804 197.968C134.436 197.672 133.936 197.524 133.304 197.524C132.752 197.524 132.268 197.656 131.852 197.92C131.444 198.184 131.128 198.56 130.904 199.048C130.688 199.536 130.58 200.12 130.58 200.8C130.58 201.48 130.688 202.068 130.904 202.564C131.128 203.052 131.444 203.428 131.852 203.692C132.268 203.948 132.752 204.076 133.304 204.076C133.936 204.076 134.436 203.936 134.804 203.656C135.172 203.368 135.42 202.98 135.548 202.492H136.856C136.688 203.324 136.3 203.976 135.692 204.448C135.084 204.912 134.292 205.144 133.316 205.144ZM139.869 205V197.584H137.373V196.6H143.553V197.584H141.069V205H139.869Z" fill="#A3AED0"/>
<path d="M220.567 205V196.6H221.767L226.051 203.044V196.6H227.251V205H226.051L221.767 198.556V205H220.567ZM232.496 205.144C231.704 205.144 231.004 204.964 230.396 204.604C229.796 204.236 229.324 203.728 228.98 203.08C228.644 202.424 228.476 201.664 228.476 200.8C228.476 199.944 228.644 199.192 228.98 198.544C229.324 197.888 229.796 197.376 230.396 197.008C231.004 196.64 231.704 196.456 232.496 196.456C233.304 196.456 234.008 196.64 234.608 197.008C235.216 197.376 235.688 197.888 236.024 198.544C236.36 199.192 236.528 199.944 236.528 200.8C236.528 201.664 236.36 202.424 236.024 203.08C235.688 203.728 235.216 204.236 234.608 204.604C234.008 204.964 233.304 205.144 232.496 205.144ZM232.496 204.076C233.064 204.076 233.556 203.944 233.972 203.68C234.396 203.416 234.724 203.04 234.956 202.552C235.188 202.064 235.304 201.48 235.304 200.8C235.304 200.12 235.188 199.536 234.956 199.048C234.724 198.56 234.396 198.188 233.972 197.932C233.556 197.668 233.064 197.536 232.496 197.536C231.936 197.536 231.444 197.668 231.02 197.932C230.604 198.188 230.28 198.56 230.048 199.048C229.816 199.536 229.7 200.12 229.7 200.8C229.7 201.48 229.816 202.064 230.048 202.552C230.28 203.04 230.604 203.416 231.02 203.68C231.444 203.944 231.936 204.076 232.496 204.076ZM239.903 205L236.771 196.6H238.067L240.623 203.752L243.191 196.6H244.463L241.331 205H239.903Z" fill="#A3AED0"/>
<path d="M321.761 205V196.6H324.221C325.197 196.6 326.001 196.772 326.633 197.116C327.273 197.46 327.745 197.948 328.049 198.58C328.361 199.204 328.517 199.948 328.517 200.812C328.517 201.676 328.361 202.42 328.049 203.044C327.745 203.668 327.273 204.152 326.633 204.496C326.001 204.832 325.197 205 324.221 205H321.761ZM322.961 203.992H324.173C324.949 203.992 325.561 203.864 326.009 203.608C326.465 203.352 326.789 202.988 326.981 202.516C327.181 202.036 327.281 201.468 327.281 200.812C327.281 200.148 327.181 199.576 326.981 199.096C326.789 198.616 326.465 198.248 326.009 197.992C325.561 197.736 324.949 197.608 324.173 197.608H322.961V203.992ZM329.736 205V196.6H335.04V197.584H330.936V200.272H334.68V201.232H330.936V204.016H335.04V205H329.736ZM340.023 205.144C339.207 205.144 338.503 204.964 337.911 204.604C337.319 204.236 336.863 203.728 336.543 203.08C336.223 202.424 336.063 201.664 336.063 200.8C336.063 199.944 336.223 199.188 336.543 198.532C336.863 197.876 337.319 197.368 337.911 197.008C338.503 196.64 339.207 196.456 340.023 196.456C340.999 196.456 341.791 196.692 342.399 197.164C343.007 197.636 343.395 198.3 343.563 199.156H342.255C342.127 198.66 341.879 198.264 341.511 197.968C341.143 197.672 340.643 197.524 340.011 197.524C339.459 197.524 338.975 197.656 338.559 197.92C338.151 198.184 337.835 198.56 337.611 199.048C337.395 199.536 337.287 200.12 337.287 200.8C337.287 201.48 337.395 202.068 337.611 202.564C337.835 203.052 338.151 203.428 338.559 203.692C338.975 203.948 339.459 204.076 340.011 204.076C340.643 204.076 341.143 203.936 341.511 203.656C341.879 203.368 342.127 202.98 342.255 202.492H343.563C343.395 203.324 343.007 203.976 342.399 204.448C341.791 204.912 340.999 205.144 340.023 205.144Z" fill="#A3AED0"/>
<path d="M424.73 205.144C424.21 205.144 423.762 205.048 423.386 204.856C423.01 204.656 422.718 204.368 422.51 203.992C422.302 203.616 422.198 203.168 422.198 202.648H423.41C423.41 202.92 423.454 203.164 423.542 203.38C423.63 203.596 423.766 203.768 423.95 203.896C424.142 204.016 424.394 204.076 424.706 204.076C425.01 204.076 425.254 204.016 425.438 203.896C425.622 203.776 425.754 203.616 425.834 203.416C425.914 203.208 425.954 202.972 425.954 202.708V196.6H427.154V202.708C427.154 203.484 426.938 204.084 426.506 204.508C426.074 204.932 425.482 205.144 424.73 205.144ZM427.77 205L430.866 196.6H432.174L435.246 205H433.974L431.502 198.04L429.03 205H427.77ZM429.174 202.924L429.498 201.964H433.458L433.782 202.924H429.174ZM436.227 205V196.6H437.427L441.711 203.044V196.6H442.911V205H441.711L437.427 198.556V205H436.227Z" fill="#A3AED0"/>
<path d="M523.861 205V196.6H529.093V197.584H525.061V200.308H528.433V201.268H525.061V205H523.861ZM530.149 205V196.6H535.453V197.584H531.349V200.272H535.093V201.232H531.349V204.016H535.453V205H530.149ZM536.788 205V196.6H539.896C540.488 196.6 540.98 196.696 541.372 196.888C541.764 197.072 542.056 197.328 542.248 197.656C542.448 197.976 542.548 198.34 542.548 198.748C542.548 199.172 542.452 199.528 542.26 199.816C542.076 200.104 541.832 200.328 541.528 200.488C541.232 200.64 540.912 200.728 540.568 200.752L540.748 200.632C541.116 200.64 541.448 200.74 541.744 200.932C542.048 201.116 542.288 201.364 542.464 201.676C542.648 201.988 542.74 202.332 542.74 202.708C542.74 203.14 542.632 203.532 542.416 203.884C542.208 204.228 541.9 204.5 541.492 204.7C541.092 204.9 540.596 205 540.004 205H536.788ZM537.988 204.004H539.848C540.376 204.004 540.784 203.884 541.072 203.644C541.368 203.396 541.516 203.048 541.516 202.6C541.516 202.16 541.364 201.808 541.06 201.544C540.764 201.28 540.352 201.148 539.824 201.148H537.988V204.004ZM537.988 200.224H539.764C540.268 200.224 540.652 200.108 540.916 199.876C541.18 199.636 541.312 199.308 541.312 198.892C541.312 198.492 541.18 198.176 540.916 197.944C540.652 197.704 540.26 197.584 539.74 197.584H537.988V200.224Z" fill="#A3AED0"/>
<defs>
<filter id="filter0_d_462_472" x="-0.000488281" y="25" width="567" height="115" filterUnits="userSpaceOnUse" color-interpolation-filters="sRGB">
<feFlood flood-opacity="0" result="BackgroundImageFix"/>
<feColorMatrix in="SourceAlpha" type="matrix" values="0 0 0 0 0 0 0 0 0 0 0 0 0 0 0 0 0 0 127 0" result="hardAlpha"/>
<feOffset dy="13"/>
<feGaussianBlur stdDeviation="10.5"/>
<feColorMatrix type="matrix" values="0 0 0 0 0.262745 0 0 0 0 0.0941176 0 0 0 0 1 0 0 0 0.25 0"/>
<feBlend mode="normal" in2="BackgroundImageFix" result="effect1_dropShadow_462_472"/>
<feBlend mode="normal" in="SourceGraphic" in2="effect1_dropShadow_462_472" result="shape"/>
</filter>
</defs>
</svg>
