<svg width="334" height="189" viewBox="0 0 334 189" fill="none" xmlns="http://www.w3.org/2000/svg">
<path d="M6.53764 183.144C5.76164 183.144 5.09764 182.964 4.54564 182.604C3.99364 182.236 3.56564 181.728 3.26164 181.08C2.96564 180.424 2.81764 179.664 2.81764 178.8C2.81764 177.944 2.96564 177.188 3.26164 176.532C3.56564 175.876 3.99364 175.368 4.54564 175.008C5.09764 174.64 5.76164 174.456 6.53764 174.456C7.31364 174.456 7.97764 174.64 8.52964 175.008C9.08164 175.368 9.50564 175.876 9.80164 176.532C10.1056 177.188 10.2576 177.944 10.2576 178.8C10.2576 179.664 10.1056 180.424 9.80164 181.08C9.50564 181.728 9.08164 182.236 8.52964 182.604C7.97764 182.964 7.31364 183.144 6.53764 183.144ZM6.53764 181.764C7.16964 181.764 7.68564 181.5 8.08564 180.972C8.48564 180.444 8.68564 179.72 8.68564 178.8C8.68564 177.88 8.48564 177.156 8.08564 176.628C7.68564 176.1 7.16964 175.836 6.53764 175.836C5.89764 175.836 5.37764 176.1 4.97764 176.628C4.58564 177.156 4.38964 177.88 4.38964 178.8C4.38964 179.72 4.58564 180.444 4.97764 180.972C5.37764 181.5 5.89764 181.764 6.53764 181.764ZM14.8172 183.144C14.0412 183.144 13.3772 182.964 12.8252 182.604C12.2732 182.236 11.8452 181.728 11.5412 181.08C11.2452 180.424 11.0972 179.664 11.0972 178.8C11.0972 177.944 11.2452 177.188 11.5412 176.532C11.8452 175.876 12.2732 175.368 12.8252 175.008C13.3772 174.64 14.0412 174.456 14.8172 174.456C15.5932 174.456 16.2572 174.64 16.8092 175.008C17.3612 175.368 17.7852 175.876 18.0812 176.532C18.3852 177.188 18.5372 177.944 18.5372 178.8C18.5372 179.664 18.3852 180.424 18.0812 181.08C17.7852 181.728 17.3612 182.236 16.8092 182.604C16.2572 182.964 15.5932 183.144 14.8172 183.144ZM14.8172 181.764C15.4492 181.764 15.9652 181.5 16.3652 180.972C16.7652 180.444 16.9652 179.72 16.9652 178.8C16.9652 177.88 16.7652 177.156 16.3652 176.628C15.9652 176.1 15.4492 175.836 14.8172 175.836C14.1772 175.836 13.6572 176.1 13.2572 176.628C12.8652 177.156 12.6692 177.88 12.6692 178.8C12.6692 179.72 12.8652 180.444 13.2572 180.972C13.6572 181.5 14.1772 181.764 14.8172 181.764Z" fill="#B0BBD5"/>
<path d="M59.7466 183.144C58.9706 183.144 58.3066 182.964 57.7546 182.604C57.2026 182.236 56.7746 181.728 56.4706 181.08C56.1746 180.424 56.0266 179.664 56.0266 178.8C56.0266 177.944 56.1746 177.188 56.4706 176.532C56.7746 175.876 57.2026 175.368 57.7546 175.008C58.3066 174.64 58.9706 174.456 59.7466 174.456C60.5226 174.456 61.1866 174.64 61.7386 175.008C62.2906 175.368 62.7146 175.876 63.0106 176.532C63.3146 177.188 63.4666 177.944 63.4666 178.8C63.4666 179.664 63.3146 180.424 63.0106 181.08C62.7146 181.728 62.2906 182.236 61.7386 182.604C61.1866 182.964 60.5226 183.144 59.7466 183.144ZM59.7466 181.764C60.3786 181.764 60.8946 181.5 61.2946 180.972C61.6946 180.444 61.8946 179.72 61.8946 178.8C61.8946 177.88 61.6946 177.156 61.2946 176.628C60.8946 176.1 60.3786 175.836 59.7466 175.836C59.1066 175.836 58.5866 176.1 58.1866 176.628C57.7946 177.156 57.5986 177.88 57.5986 178.8C57.5986 179.72 57.7946 180.444 58.1866 180.972C58.5866 181.5 59.1066 181.764 59.7466 181.764ZM68.4221 183V181.44H64.2821V180.216L68.2181 174.6H69.9581V180.108H71.0621V181.44H69.9581V183H68.4221ZM65.9261 180.108H68.5181V176.292L65.9261 180.108Z" fill="#B0BBD5"/>
<path d="M112.61 183.144C111.834 183.144 111.17 182.964 110.618 182.604C110.066 182.236 109.638 181.728 109.334 181.08C109.038 180.424 108.89 179.664 108.89 178.8C108.89 177.944 109.038 177.188 109.334 176.532C109.638 175.876 110.066 175.368 110.618 175.008C111.17 174.64 111.834 174.456 112.61 174.456C113.386 174.456 114.05 174.64 114.602 175.008C115.154 175.368 115.578 175.876 115.874 176.532C116.178 177.188 116.33 177.944 116.33 178.8C116.33 179.664 116.178 180.424 115.874 181.08C115.578 181.728 115.154 182.236 114.602 182.604C114.05 182.964 113.386 183.144 112.61 183.144ZM112.61 181.764C113.242 181.764 113.758 181.5 114.158 180.972C114.558 180.444 114.758 179.72 114.758 178.8C114.758 177.88 114.558 177.156 114.158 176.628C113.758 176.1 113.242 175.836 112.61 175.836C111.97 175.836 111.45 176.1 111.05 176.628C110.658 177.156 110.462 177.88 110.462 178.8C110.462 179.72 110.658 180.444 111.05 180.972C111.45 181.5 111.97 181.764 112.61 181.764ZM120.409 183.144C119.833 183.144 119.313 183.044 118.849 182.844C118.385 182.636 118.013 182.344 117.733 181.968C117.461 181.592 117.325 181.156 117.325 180.66C117.325 180.148 117.457 179.7 117.721 179.316C117.993 178.932 118.349 178.656 118.789 178.488C118.405 178.32 118.101 178.08 117.877 177.768C117.653 177.448 117.541 177.092 117.541 176.7C117.541 176.3 117.649 175.932 117.865 175.596C118.081 175.252 118.401 174.976 118.825 174.768C119.257 174.56 119.785 174.456 120.409 174.456C121.033 174.456 121.557 174.56 121.981 174.768C122.405 174.976 122.725 175.252 122.941 175.596C123.157 175.932 123.265 176.3 123.265 176.7C123.265 177.084 123.149 177.44 122.917 177.768C122.693 178.088 122.393 178.328 122.017 178.488C122.465 178.656 122.821 178.932 123.085 179.316C123.349 179.7 123.481 180.148 123.481 180.66C123.481 181.156 123.345 181.592 123.073 181.968C122.801 182.344 122.429 182.636 121.957 182.844C121.493 183.044 120.977 183.144 120.409 183.144ZM120.409 178.032C120.825 178.032 121.153 177.924 121.393 177.708C121.633 177.492 121.753 177.216 121.753 176.88C121.753 176.512 121.633 176.224 121.393 176.016C121.161 175.808 120.833 175.704 120.409 175.704C119.977 175.704 119.645 175.808 119.413 176.016C119.181 176.224 119.065 176.512 119.065 176.88C119.065 177.224 119.181 177.504 119.413 177.72C119.653 177.928 119.985 178.032 120.409 178.032ZM120.409 181.86C120.921 181.86 121.309 181.736 121.573 181.488C121.837 181.232 121.969 180.912 121.969 180.528C121.969 180.104 121.829 179.772 121.549 179.532C121.277 179.292 120.897 179.172 120.409 179.172C119.921 179.172 119.533 179.292 119.245 179.532C118.965 179.772 118.825 180.104 118.825 180.528C118.825 180.912 118.957 181.232 119.221 181.488C119.493 181.736 119.889 181.86 120.409 181.86Z" fill="#B0BBD5"/>
<path d="M164.852 183V176.352L163.472 176.676V175.5L165.5 174.6H166.448V183H164.852ZM167.633 183V181.884C168.145 181.46 168.641 181.04 169.121 180.624C169.609 180.208 170.041 179.796 170.417 179.388C170.801 178.98 171.105 178.584 171.329 178.2C171.561 177.808 171.677 177.428 171.677 177.06C171.677 176.716 171.581 176.412 171.389 176.148C171.205 175.884 170.897 175.752 170.465 175.752C170.025 175.752 169.693 175.896 169.469 176.184C169.245 176.472 169.133 176.82 169.133 177.228H167.645C167.661 176.612 167.797 176.1 168.053 175.692C168.309 175.276 168.649 174.968 169.073 174.768C169.497 174.56 169.973 174.456 170.501 174.456C171.357 174.456 172.021 174.692 172.493 175.164C172.973 175.628 173.213 176.232 173.213 176.976C173.213 177.44 173.105 177.892 172.889 178.332C172.681 178.772 172.405 179.196 172.061 179.604C171.717 180.012 171.345 180.396 170.945 180.756C170.545 181.108 170.157 181.436 169.781 181.74H173.417V183H167.633Z" fill="#B0BBD5"/>
<path d="M217.229 183V176.352L215.849 176.676V175.5L217.877 174.6H218.825V183H217.229ZM224.053 183V181.44H219.913V180.216L223.849 174.6H225.589V180.108H226.693V181.44H225.589V183H224.053ZM221.557 180.108H224.149V176.292L221.557 180.108Z" fill="#B0BBD5"/>
<path d="M269.507 183V176.352L268.127 176.676V175.5L270.155 174.6H271.103V183H269.507ZM275.648 183.144C275.016 183.144 274.484 183.028 274.052 182.796C273.62 182.564 273.272 182.252 273.008 181.86C272.744 181.468 272.552 181.032 272.432 180.552C272.32 180.072 272.264 179.58 272.264 179.076C272.264 178.14 272.396 177.328 272.66 176.64C272.924 175.944 273.304 175.408 273.8 175.032C274.296 174.648 274.896 174.456 275.6 174.456C276.176 174.456 276.664 174.572 277.064 174.804C277.472 175.028 277.788 175.324 278.012 175.692C278.236 176.06 278.368 176.456 278.408 176.88H276.98C276.908 176.512 276.752 176.228 276.512 176.028C276.272 175.828 275.964 175.728 275.588 175.728C275.052 175.728 274.62 175.976 274.292 176.472C273.964 176.96 273.788 177.708 273.764 178.716C273.956 178.388 274.244 178.116 274.628 177.9C275.012 177.684 275.44 177.576 275.912 177.576C276.376 177.576 276.812 177.688 277.22 177.912C277.628 178.136 277.956 178.452 278.204 178.86C278.46 179.268 278.588 179.748 278.588 180.3C278.588 180.804 278.464 181.272 278.216 181.704C277.976 182.136 277.632 182.484 277.184 182.748C276.744 183.012 276.232 183.144 275.648 183.144ZM275.564 181.824C276.012 181.824 276.38 181.688 276.668 181.416C276.964 181.136 277.112 180.784 277.112 180.36C277.112 179.912 276.964 179.552 276.668 179.28C276.372 179.008 275.996 178.872 275.54 178.872C275.244 178.872 274.976 178.94 274.736 179.076C274.504 179.204 274.32 179.38 274.184 179.604C274.048 179.82 273.98 180.064 273.98 180.336C273.98 180.768 274.128 181.124 274.424 181.404C274.728 181.684 275.108 181.824 275.564 181.824Z" fill="#B0BBD5"/>
<path d="M321.773 183V176.352L320.393 176.676V175.5L322.421 174.6H323.369V183H321.773ZM327.722 183.144C327.146 183.144 326.626 183.044 326.162 182.844C325.698 182.636 325.326 182.344 325.046 181.968C324.774 181.592 324.638 181.156 324.638 180.66C324.638 180.148 324.77 179.7 325.034 179.316C325.306 178.932 325.662 178.656 326.102 178.488C325.718 178.32 325.414 178.08 325.19 177.768C324.966 177.448 324.854 177.092 324.854 176.7C324.854 176.3 324.962 175.932 325.178 175.596C325.394 175.252 325.714 174.976 326.138 174.768C326.57 174.56 327.098 174.456 327.722 174.456C328.346 174.456 328.87 174.56 329.294 174.768C329.718 174.976 330.038 175.252 330.254 175.596C330.47 175.932 330.578 176.3 330.578 176.7C330.578 177.084 330.462 177.44 330.23 177.768C330.006 178.088 329.706 178.328 329.33 178.488C329.778 178.656 330.134 178.932 330.398 179.316C330.662 179.7 330.794 180.148 330.794 180.66C330.794 181.156 330.658 181.592 330.386 181.968C330.114 182.344 329.742 182.636 329.27 182.844C328.806 183.044 328.29 183.144 327.722 183.144ZM327.722 178.032C328.138 178.032 328.466 177.924 328.706 177.708C328.946 177.492 329.066 177.216 329.066 176.88C329.066 176.512 328.946 176.224 328.706 176.016C328.474 175.808 328.146 175.704 327.722 175.704C327.29 175.704 326.958 175.808 326.726 176.016C326.494 176.224 326.378 176.512 326.378 176.88C326.378 177.224 326.494 177.504 326.726 177.72C326.966 177.928 327.298 178.032 327.722 178.032ZM327.722 181.86C328.234 181.86 328.622 181.736 328.886 181.488C329.15 181.232 329.282 180.912 329.282 180.528C329.282 180.104 329.142 179.772 328.862 179.532C328.59 179.292 328.21 179.172 327.722 179.172C327.234 179.172 326.846 179.292 326.558 179.532C326.278 179.772 326.138 180.104 326.138 180.528C326.138 180.912 326.27 181.232 326.534 181.488C326.806 181.736 327.202 181.86 327.722 181.86Z" fill="#B0BBD5"/>
<path d="M320 153L320 119.796C320 115.93 323.134 112.796 327 112.796C330.866 112.796 334 115.93 334 119.796L334 153L320 153Z" fill="url(#paint0_linear_488_472)"/>
<path d="M267 153L267 6.99998C267 3.13399 270.134 -1.53026e-05 274 -1.53567e-05C277.866 -1.54107e-05 281 3.13399 281 6.99998L281 153L267 153Z" fill="url(#paint1_linear_488_472)"/>
<path d="M215 153L215 43.854C215 39.988 218.134 36.854 222 36.854C225.866 36.854 229 39.988 229 43.854L229 153L215 153Z" fill="url(#paint2_linear_488_472)"/>
<path d="M162 153L162 72.8905C162 69.0245 165.134 65.8905 169 65.8905C172.866 65.8905 176 69.0245 176 72.8905L176 153L162 153Z" fill="url(#paint3_linear_488_472)"/>
<path d="M109 153L109 21.5182C109 17.6523 112.134 14.5182 116 14.5182C119.866 14.5182 123 17.6523 123 21.5182L123 153L109 153Z" fill="url(#paint4_linear_488_472)"/>
<path d="M57 153L57 89.6423C57 85.7763 60.134 82.6423 64 82.6423C67.866 82.6423 71 85.7763 71 89.6423L71 153L57 153Z" fill="url(#paint5_linear_488_472)"/>
<path d="M4 153L3.99999 60.6059C3.99999 56.7399 7.134 53.6058 11 53.6058C14.866 53.6058 18 56.7399 18 60.6058L18 153L4 153Z" fill="url(#paint6_linear_488_472)"/>
<defs>
<linearGradient id="paint0_linear_488_472" x1="327" y1="115.029" x2="327" y2="153" gradientUnits="userSpaceOnUse">
<stop stop-color="#4318FF"/>
<stop offset="1" stop-color="#4318FF" stop-opacity="0.28"/>
</linearGradient>
<linearGradient id="paint1_linear_488_472" x1="274" y1="8.49997" x2="274" y2="153" gradientUnits="userSpaceOnUse">
<stop stop-color="#4318FF"/>
<stop offset="1" stop-color="#4318FF" stop-opacity="0.28"/>
</linearGradient>
<linearGradient id="paint2_linear_488_472" x1="222" y1="43.3066" x2="222" y2="153" gradientUnits="userSpaceOnUse">
<stop stop-color="#4318FF"/>
<stop offset="1" stop-color="#4318FF" stop-opacity="0.28"/>
</linearGradient>
<linearGradient id="paint3_linear_488_472" x1="169" y1="70.7299" x2="169" y2="153" gradientUnits="userSpaceOnUse">
<stop stop-color="#4318FF"/>
<stop offset="1" stop-color="#4318FF" stop-opacity="0.28"/>
</linearGradient>
<linearGradient id="paint4_linear_488_472" x1="116" y1="22.2117" x2="116" y2="153" gradientUnits="userSpaceOnUse">
<stop stop-color="#4318FF"/>
<stop offset="1" stop-color="#4318FF" stop-opacity="0.28"/>
</linearGradient>
<linearGradient id="paint5_linear_488_472" x1="63.9998" y1="86.5511" x2="63.9998" y2="153" gradientUnits="userSpaceOnUse">
<stop stop-color="#4318FF"/>
<stop offset="1" stop-color="#4318FF" stop-opacity="0.28"/>
</linearGradient>
<linearGradient id="paint6_linear_488_472" x1="10.9998" y1="59.1277" x2="10.9998" y2="153" gradientUnits="userSpaceOnUse">
<stop stop-color="#4318FF"/>
<stop offset="1" stop-color="#4318FF" stop-opacity="0.28"/>
</linearGradient>
</defs>
</svg>
